<svg width="128" height="128" viewBox="0 0 128 128" fill="none" xmlns="http://www.w3.org/2000/svg">
  <path d="M52 25.5C65.6 21.9 80.4 24.2 92 32" stroke="#1F252C" stroke-width="9" stroke-linecap="round"/>
  <path d="M99.5 48C104.2 61.6 101.7 77.2 92.5 88.5" stroke="#1F252C" stroke-width="9" stroke-linecap="round"/>
  <path d="M38.5 89.5C28.6 78.7 25.1 63.1 29.5 49" stroke="#1F252C" stroke-width="9" stroke-linecap="round"/>

  <circle cx="40" cy="37" r="11.5" fill="#1F252C"/>
  <circle cx="91" cy="60" r="11.5" fill="#1F252C"/>
  <circle cx="62" cy="94" r="11.5" fill="#1F252C"/>

  <path d="M50 45C50 41.7 52.7 39 56 39H73.5L84 49.5V79C84 82.3 81.3 85 78 85H56C52.7 85 50 82.3 50 79V45Z" fill="#0DAEB5"/>
  <path d="M73.5 39V49.5H84L73.5 39Z" fill="#7BE3E7"/>
  <path d="M58 59H76" stroke="white" stroke-width="4" stroke-linecap="round"/>
  <path d="M58 69H72" stroke="white" stroke-width="4" stroke-linecap="round"/>
</svg>
