<svg width="760" height="760" viewBox="250 240 760 760" fill="none" xmlns="http://www.w3.org/2000/svg">
  <defs>
    <linearGradient id="dark" x1="340" y1="320" x2="900" y2="900" gradientUnits="userSpaceOnUse">
      <stop stop-color="#202832"/>
      <stop offset="1" stop-color="#151B22"/>
    </linearGradient>
    <linearGradient id="teal" x1="526" y1="488" x2="728" y2="745" gradientUnits="userSpaceOnUse">
      <stop stop-color="#00AEB6"/>
      <stop offset="1" stop-color="#008F96"/>
    </linearGradient>
    <linearGradient id="fold" x1="665" y1="496" x2="728" y2="575" gradientUnits="userSpaceOnUse">
      <stop stop-color="#00B7BF"/>
      <stop offset="1" stop-color="#008B92"/>
    </linearGradient>
  </defs>

  <path d="M505 329C582 298 673 298 749 329" stroke="url(#dark)" stroke-width="64" stroke-linecap="round"/>
  <path d="M357 520C337 639 390 761 493 831" stroke="url(#dark)" stroke-width="64" stroke-linecap="round"/>
  <path d="M761 831C864 761 917 639 897 520" stroke="url(#dark)" stroke-width="64" stroke-linecap="round"/>

  <circle cx="407" cy="410" r="72" fill="url(#dark)"/>
  <circle cx="847" cy="410" r="72" fill="url(#dark)"/>
  <circle cx="627" cy="791" r="72" fill="url(#dark)"/>

  <path d="M560 488H649V543C649 567 669 587 693 587H726V710C726 728 711 743 693 743H560C542 743 527 728 527 710V521C527 503 542 488 560 488Z" fill="url(#teal)"/>
  <path d="M668 497L722 552H692C679 552 668 541 668 528V497Z" fill="url(#fold)"/>
  <path d="M659 491V542C659 567 680 588 705 588H727" stroke="white" stroke-width="13" stroke-linecap="round" stroke-linejoin="round"/>

  <path d="M582 630H673" stroke="white" stroke-width="15" stroke-linecap="round"/>
  <path d="M582 673H673" stroke="white" stroke-width="15" stroke-linecap="round"/>
</svg>
