<svg width="760" height="760" viewBox="250 240 760 760" fill="none" xmlns="http://www.w3.org/2000/svg">
  <defs>
    <linearGradient id="dark" x1="330" y1="260" x2="980" y2="980" gradientUnits="userSpaceOnUse">
      <stop stop-color="#202832"/>
      <stop offset="1" stop-color="#151B22"/>
    </linearGradient>
    <linearGradient id="teal" x1="545" y1="505" x2="711" y2="721" gradientUnits="userSpaceOnUse">
      <stop stop-color="#00AEB6"/>
      <stop offset="1" stop-color="#008F96"/>
    </linearGradient>
    <linearGradient id="fold" x1="663" y1="510" x2="708" y2="575" gradientUnits="userSpaceOnUse">
      <stop stop-color="#00B7BF"/>
      <stop offset="1" stop-color="#008B92"/>
    </linearGradient>
  </defs>

  <path d="M528 304C645 266 792 303 896 475" stroke="url(#dark)" stroke-width="64" stroke-linecap="round"/>
  <path d="M352 482C298 630 353 791 500 870" stroke="url(#dark)" stroke-width="64" stroke-linecap="round"/>
  <path d="M732 878C812 845 868 786 896 719" stroke="url(#dark)" stroke-width="64" stroke-linecap="round"/>

  <circle cx="421" cy="374" r="78" fill="url(#dark)"/>
  <circle cx="923" cy="600" r="78" fill="url(#dark)"/>
  <circle cx="621" cy="893" r="78" fill="url(#dark)"/>

  <path d="M575 505H646V550C646 573 664 591 687 591H710V693C710 709 697 722 681 722H574C558 722 545 709 545 693V535C545 518 558 505 575 505Z" fill="url(#teal)"/>
  <path d="M663 513L707 559H682C672 559 663 550 663 540V513Z" fill="url(#fold)"/>
  <path d="M653 507V547C653 569 671 586 692 586H711" stroke="white" stroke-width="12" stroke-linecap="round" stroke-linejoin="round"/>

  <path d="M589 625H664" stroke="white" stroke-width="14" stroke-linecap="round"/>
  <path d="M589 663H664" stroke="white" stroke-width="14" stroke-linecap="round"/>
</svg>
