<svg width="760" height="760" viewBox="250 240 760 760" fill="none" xmlns="http://www.w3.org/2000/svg">
  <defs>
    <linearGradient id="dark" x1="340" y1="300" x2="905" y2="925" gradientUnits="userSpaceOnUse">
      <stop stop-color="#202832"/>
      <stop offset="1" stop-color="#151B22"/>
    </linearGradient>
    <linearGradient id="teal" x1="572" y1="520" x2="690" y2="690" gradientUnits="userSpaceOnUse">
      <stop stop-color="#00AEB6"/>
      <stop offset="1" stop-color="#008F96"/>
    </linearGradient>
    <linearGradient id="fold" x1="652" y1="525" x2="694" y2="580" gradientUnits="userSpaceOnUse">
      <stop stop-color="#00B7BF"/>
      <stop offset="1" stop-color="#008B92"/>
    </linearGradient>
  </defs>

  <path
    d="M625 310C452.6 310 313 449.6 313 622C313 794.4 452.6 934 625 934C672.4 934 717.3 923.4 757.5 904.5L886 945C910.5 952.7 933.6 930.7 927.1 905.9L895.8 786.8C922 739.6 937 683.3 937 622C937 449.6 797.4 310 625 310ZM625 403C746 403 844 501 844 622C844 664.6 831.8 704.4 810.8 738L798.6 757.4L814.4 817.6L748.9 797L729.2 806.6C697.8 822 662.4 831 625 831C504 831 406 733 406 622C406 501 504 403 625 403Z"
    fill="url(#dark)"
  />

  <path d="M579 518H652V563C652 583 668 599 688 599H714V697C714 713 701 726 685 726H579C563 726 550 713 550 697V547C550 531 563 518 579 518Z" fill="url(#teal)"/>
  <path d="M668 527L710 570H686C676 570 668 562 668 552V527Z" fill="url(#fold)"/>
  <path d="M659 521V562C659 585 677 603 700 603H715" stroke="white" stroke-width="12" stroke-linecap="round" stroke-linejoin="round"/>
  <path d="M590 625H674" stroke="white" stroke-width="13" stroke-linecap="round"/>
  <path d="M590 662H674" stroke="white" stroke-width="13" stroke-linecap="round"/>
</svg>
