<svg width="760" height="760" viewBox="250 240 760 760" fill="none" xmlns="http://www.w3.org/2000/svg">
  <defs>
    <linearGradient id="dark" x1="360" y1="330" x2="900" y2="910" gradientUnits="userSpaceOnUse">
      <stop stop-color="#202832"/>
      <stop offset="1" stop-color="#151B22"/>
    </linearGradient>
    <linearGradient id="teal" x1="525" y1="485" x2="730" y2="745" gradientUnits="userSpaceOnUse">
      <stop stop-color="#00AEB6"/>
      <stop offset="1" stop-color="#008F96"/>
    </linearGradient>
    <linearGradient id="fold" x1="665" y1="495" x2="730" y2="575" gradientUnits="userSpaceOnUse">
      <stop stop-color="#00B7BF"/>
      <stop offset="1" stop-color="#008B92"/>
    </linearGradient>
  </defs>

  <path d="M478 400A266 266 0 0 1 776 400" stroke="url(#dark)" stroke-width="58" stroke-linecap="round"/>
  <path d="M827 489A266 266 0 0 1 678 747" stroke="url(#dark)" stroke-width="58" stroke-linecap="round"/>
  <path d="M576 747A266 266 0 0 1 427 489" stroke="url(#dark)" stroke-width="58" stroke-linecap="round"/>

  <circle cx="397" cy="487" r="58" fill="url(#dark)"/>
  <circle cx="857" cy="487" r="58" fill="url(#dark)"/>
  <circle cx="627" cy="885" r="58" fill="url(#dark)"/>

  <path d="M558 486H649V542C649 567 670 588 695 588H728V711C728 730 713 745 694 745H558C539 745 524 730 524 711V520C524 501 539 486 558 486Z" fill="url(#teal)"/>
  <path d="M668 496L723 552H693C679 552 668 541 668 527V496Z" fill="url(#fold)"/>
  <path d="M659 491V542C659 568 680 589 706 589H728" stroke="white" stroke-width="13" stroke-linecap="round" stroke-linejoin="round"/>
  <path d="M582 631H673" stroke="white" stroke-width="15" stroke-linecap="round"/>
  <path d="M582 674H673" stroke="white" stroke-width="15" stroke-linecap="round"/>
</svg>
