<svg width="760" height="760" viewBox="250 240 760 760" fill="none" xmlns="http://www.w3.org/2000/svg">
  <defs>
    <linearGradient id="dark" x1="330" y1="260" x2="980" y2="980" gradientUnits="userSpaceOnUse">
      <stop stop-color="#202832"/>
      <stop offset="1" stop-color="#151B22"/>
    </linearGradient>
    <linearGradient id="teal" x1="535" y1="493" x2="720" y2="735" gradientUnits="userSpaceOnUse">
      <stop stop-color="#00AEB6"/>
      <stop offset="1" stop-color="#008F96"/>
    </linearGradient>
    <linearGradient id="fold" x1="668" y1="501" x2="720" y2="575" gradientUnits="userSpaceOnUse">
      <stop stop-color="#00B7BF"/>
      <stop offset="1" stop-color="#008B92"/>
    </linearGradient>
  </defs>

  <path d="M528 304C645 266 792 303 896 475" stroke="url(#dark)" stroke-width="64" stroke-linecap="round"/>
  <path d="M352 482C298 630 353 791 500 870" stroke="url(#dark)" stroke-width="64" stroke-linecap="round"/>
  <path d="M732 878C812 845 868 786 896 719" stroke="url(#dark)" stroke-width="64" stroke-linecap="round"/>

  <circle cx="421" cy="374" r="78" fill="url(#dark)"/>
  <circle cx="896" cy="600" r="78" fill="url(#dark)"/>
  <circle cx="627" cy="893" r="78" fill="url(#dark)"/>

  <path d="M566 494H650V546C650 570 669 589 693 589H720V706C720 724 706 738 688 738H566C548 738 534 724 534 706V526C534 508 548 494 566 494Z" fill="url(#teal)"/>
  <path d="M669 503L716 553H690C678 553 669 543 669 531V503Z" fill="url(#fold)"/>
  <path d="M660 497V546C660 571 680 591 705 591H721" stroke="white" stroke-width="13" stroke-linecap="round" stroke-linejoin="round"/>

  <path d="M579 629H675" stroke="white" stroke-width="15" stroke-linecap="round"/>
  <path d="M579 671H675" stroke="white" stroke-width="15" stroke-linecap="round"/>
</svg>
